# xmcd
#
# Track frame offsets:
#	150
#	13792
#	23767
#	37968
#	51600
#	63530
#	73733
#	83636
#	93871
#	108158
#	116243
#	129807
#	144099
#	154299
#	166196
#	179230
#
# Disc length: 2529 seconds
#
# Revision: 1
# Processed by: cddbd v1.5.2PL0 Copyright (c) Steve Scherf et al.
# Submitted via: audiograbber 1.83.01
#
DISCID=d509df10
DTITLE=Dean Martin - The Best Of
DYEAR=2008
DGENRE=Swing
TTITLE0=That's Amore
TTITLE1=Memories Are Made Of This
TTITLE2=Come Back To Sorrento
TTITLE3=When You're Smiling
TTITLE4=Sway
TTITLE5=The Look
TTITLE6=The Best Of Time
TTITLE7=Who's Your Little Who-Zis
TTITLE8=I'm Yours
TTITLE9=I Feel A Song Comin' On
TTITLE10=With My Eyes Wide Open I'm Dreaming
TTITLE11=Just One More Chance
TTITLE12=Louise
TTITLE13=I Feel Like A Feather In The Breeze
TTITLE14=Promise Her Anything
TTITLE15=Don't You Remember
EXTD=
EXTT0=
EXTT1=
EXTT2=
EXTT3=
EXTT4=
EXTT5=
EXTT6=
EXTT7=
EXTT8=
EXTT9=
EXTT10=
EXTT11=
EXTT12=
EXTT13=
EXTT14=
EXTT15=
PLAYORDER=
